<?xml version="1.0" encoding="UTF-8" standalone="no"?>
<svg
   width="1200"
   height="800"
   viewBox="0 0 1200 800"
   version="1.1"
   xml:space="preserve"
   style="clip-rule:evenodd;fill-rule:evenodd;stroke-linejoin:round;stroke-miterlimit:1.41421"
   id="svg273"
   sodipodi:docname="crunchyroll-rs_1.svg"
   inkscape:version="1.2.1 (9c6d41e410, 2022-07-14)"
   inkscape:export-filename="crunchyroll-rs_1.png"
   inkscape:export-xdpi="300"
   inkscape:export-ydpi="300"
   xmlns:inkscape="http://www.inkscape.org/namespaces/inkscape"
   xmlns:sodipodi="http://sodipodi.sourceforge.net/DTD/sodipodi-0.dtd"
   xmlns:xlink="http://www.w3.org/1999/xlink"
   xmlns="http://www.w3.org/2000/svg"
   xmlns:svg="http://www.w3.org/2000/svg"><sodipodi:namedview
   id="namedview275"
   pagecolor="#ffffff"
   bordercolor="#000000"
   borderopacity="0.25"
   inkscape:showpageshadow="2"
   inkscape:pageopacity="0.0"
   inkscape:pagecheckerboard="0"
   inkscape:deskcolor="#d1d1d1"
   showgrid="false"
   inkscape:zoom="0.76013979"
   inkscape:cx="602.52075"
   inkscape:cy="517.01017"
   inkscape:window-width="1920"
   inkscape:window-height="1008"
   inkscape:window-x="1920"
   inkscape:window-y="38"
   inkscape:window-maximized="1"
   inkscape:current-layer="svg273" />
    
    <defs
   id="defs271">
        <linearGradient
   id="_Linear1"
   x1="0"
   y1="0"
   x2="1"
   y2="0"
   gradientUnits="userSpaceOnUse"
   gradientTransform="matrix(-65.8097,-752.207,752.207,-65.8097,622.19632,796.26919)"><stop
     offset="0"
     style="stop-color:rgb(247,76,0);stop-opacity:1"
     id="stop246" /><stop
     offset="0.33"
     style="stop-color:rgb(247,76,0);stop-opacity:1"
     id="stop248" /><stop
     offset="1"
     style="stop-color:rgb(244,150,0);stop-opacity:1"
     id="stop250" /></linearGradient>
        <linearGradient
   id="_Linear2"
   x1="0"
   y1="0"
   x2="1"
   y2="0"
   gradientUnits="userSpaceOnUse"
   gradientTransform="matrix(1,0,0,-1,0,1.23438e-6)"><stop
     offset="0"
     style="stop-color:rgb(204,58,0);stop-opacity:1"
     id="stop253" /><stop
     offset="0.15"
     style="stop-color:rgb(204,58,0);stop-opacity:1"
     id="stop255" /><stop
     offset="0.74"
     style="stop-color:rgb(247,76,0);stop-opacity:1"
     id="stop257" /><stop
     offset="1"
     style="stop-color:rgb(247,76,0);stop-opacity:1"
     id="stop259" /></linearGradient>
        <linearGradient
   id="_Linear3"
   x1="0"
   y1="0"
   x2="1"
   y2="0"
   gradientUnits="userSpaceOnUse"
   gradientTransform="scale(1,-1)"><stop
     offset="0"
     style="stop-color:rgb(204,58,0);stop-opacity:1"
     id="stop262" /><stop
     offset="0.15"
     style="stop-color:rgb(204,58,0);stop-opacity:1"
     id="stop264" /><stop
     offset="0.74"
     style="stop-color:rgb(247,76,0);stop-opacity:1"
     id="stop266" /><stop
     offset="1"
     style="stop-color:rgb(247,76,0);stop-opacity:1"
     id="stop268" /></linearGradient>
    <linearGradient
   inkscape:collect="always"
   xlink:href="#_Linear2"
   id="linearGradient441"
   gradientUnits="userSpaceOnUse"
   gradientTransform="matrix(-1.53e-5,-267.211,267.211,-1.53e-5,809.46467,764.23)"
   x1="0"
   y1="0"
   x2="1"
   y2="0" /><linearGradient
   inkscape:collect="always"
   xlink:href="#_Linear2"
   id="linearGradient443"
   gradientUnits="userSpaceOnUse"
   gradientTransform="matrix(-1.53e-5,-267.211,267.211,-1.53e-5,809.46467,764.23)"
   x1="0"
   y1="0"
   x2="1"
   y2="0" /><linearGradient
   inkscape:collect="always"
   xlink:href="#_Linear3"
   id="linearGradient445"
   gradientUnits="userSpaceOnUse"
   gradientTransform="matrix(-1.53e-5,-239.021,239.021,-1.53e-5,402.161,775.388)"
   x1="0"
   y1="0"
   x2="1"
   y2="0" /><linearGradient
   inkscape:collect="always"
   xlink:href="#_Linear3"
   id="linearGradient447"
   gradientUnits="userSpaceOnUse"
   gradientTransform="matrix(-1.53e-5,-239.021,239.021,-1.53e-5,402.161,775.388)"
   x1="0"
   y1="0"
   x2="1"
   y2="0" />
        
        
        
        
        
        
        
        
        
        
        
        
    
            
        
            
        
            
        
            
        
            
        
            
        
            
        
            
        
            
        
            
        
            
        
            
        </defs>
<g
   id="g543"
   transform="matrix(1.0510205,0,0,1.0510205,-30.495928,-38.26465)"><path
     d="m 597.344,357.461 c -121.238,0 -231.39,14.576 -312.939,38.329 v 202.901 c 81.549,23.754 191.701,38.329 312.939,38.329 138.76,0 262.987,-19.092 346.431,-49.186 V 406.65 C 860.331,376.555 736.104,357.461 597.344,357.461"
     style="fill:#a52b00;fill-rule:nonzero"
     id="path197" /><path
     d="m 1068.75,522.322 -14.211,-29.441 c 0.073,-1.118 0.131,-2.237 0.131,-3.36 0,-33.375 -34.706,-64.135 -93.097,-88.762 v 177.526 c 27.245,-11.492 49.348,-24.317 65.156,-38.125 -4.652,18.707 -20.564,56.553 -33.25,83.168 -20.85,38.066 -28.4,71.203 -27.432,72.844 0.617,1.033 7.73,-9.94 18.219,-27.721 24.41,-34.781 70.664,-101.182 79.909,-118.096 10.472,-19.174 4.575,-28.033 4.575,-28.033"
     style="fill:#a52b00;fill-rule:nonzero"
     id="path201" /><path
     d="m 149.064,491.467 c 0,6.428 1.293,12.76 3.788,18.969 l -8.511,15.15 c 0,0 -6.818,8.846 5.188,27.508 10.59,16.455 63.635,80.867 91.632,114.598 12.026,17.293 20.179,27.945 20.893,26.916 1.124,-1.633 -7.476,-34.1 -31.359,-71.141 -11.144,-19.895 -24.454,-46.252 -32.442,-65.721 22.303,14.116 51.483,26.92 86.152,37.94 V 387.251 c -83.544,26.548 -135.341,63.433 -135.341,104.216"
     style="fill:#a52b00;fill-rule:nonzero"
     id="path205" /><path
     d="m 582.06463,48.637333 -27.77574,46.392014 c -4.51324,0.394858 -9.02648,0.789716 -13.53972,1.184574 L 504.65311,56.167939 c -3.40368,-4.250003 -8.86656,-6.045956 -14.0662,-4.833081 -5.19964,1.212875 -9.38383,5.368768 -11.2456,10.079439 l -18.22277,51.619953 c -4.44743,1.14707 -8.89486,2.29413 -12.52428,4.12759 L 405.56843,84.543821 c -4.02428,-2.679779 -10.17355,-3.657716 -14.55517,-1.758444 -5.06802,2.717289 -8.50001,6.807373 -9.54376,12.204441 l -8.86723,54.591272 c -3.62942,1.83346 -7.19302,4.41913 -11.57465,6.3184 l -47.43576,-22.37866 c -4.77648,-2.61397 -10.79413,-2.08749 -15.04414,1.3162 -4.31581,2.65147 -6.86397,8.18016 -7.15551,13.51142 l 1.79528,55.17435 c -2.8114,2.51986 -6.30919,5.85774 -9.8728,8.44341 l -51.09348,-12.20512 c -5.46287,-1.79595 -10.5967,0.16913 -14.7809,4.32502 -3.49779,3.33788 -5.22794,9.55297 -4.01506,14.75261 l 12.26037,53.5008 c -2.74559,3.27207 -5.49118,6.54414 -8.17096,10.56841 l -53.24678,-2.16318 c -5.33126,-0.29154 -10.39928,2.42575 -13.01325,7.20223 -2.61397,4.77648 -3.5919,10.92575 -0.87461,15.99377 l 21.77582,49.63646 c -2.67978,4.02427 -4.60736,7.98273 -6.53493,11.9412 l -51.50742,9.05411 c -6.01766,0.52648 -10.20185,4.68237 -12.06361,9.39304 -1.79596,5.46288 -1.26948,11.48053 1.382,15.79635 l 31.15965,44.26768 c -0.68639,0.81802 -0.62059,1.57023 -0.55478,2.32243 l -87.407391,92.53921 c 0,0 -12.75001,10.21106 6.101884,35.09049 17.018431,21.25002 104.846967,106.79565 151.248187,152.00376 19.40667,22.557 32.75818,36.54819 34.19678,35.66436 2.05919,-2.45405 -9.14822,-43.91955 -47.47259,-92.10819 -29.58943,-43.64709 -68.05464,-110.77253 -59.62044,-118.33211 0,0 10.23015,-13.02245 31.38606,-22.453 0,0 0,0 0,0 -0.81802,-0.6864 -0.81802,-0.6864 0,0 0,0 435.19611,200.68406 838.58776,3.18737 46.2419,-8.59344 74.1861,16.24848 74.1861,16.24848 9.6188,5.98015 -15.4304,74.87256 -35.6841,120.60648 -28.0673,51.72327 -32.1014,92.24834 -29.7132,93.55532 1.5702,0.62059 11.603,-14.65849 26.1114,-39.42472 35.8526,-49.37254 102.6213,-143.89592 115.0048,-166.9603 14.3768,-26.27065 0.047,-34.11256 0.047,-34.11256 l -93.1506,-68.40479 c -1.0154,-2.94302 -2.0309,-5.88604 -2.3599,-9.64707 l 30.2297,-44.33282 c 3.432,-4.09009 3.6578,-10.17355 1.6927,-15.30738 -1.9651,-5.13383 -6.0552,-8.56582 -11.4523,-9.60956 l -52.3346,-9.06467 c -1.8335,-3.62942 -3.7327,-8.01104 -5.5662,-11.64045 l 21.3632,-50.37878 c 2.614,-4.77648 2.0875,-10.79414 -1.382,-15.79635 -2.6515,-4.31581 -7.4279,-6.92978 -12.6934,-6.46911 l -52.91772,1.59785 c -2.58567,-3.56361 -5.92355,-7.0614 -8.50922,-10.62501 l 12.00768,-53.3501 c 1.04375,-5.39707 -0.23493,-11.34891 -3.57281,-14.84671 -4.15589,-4.18419 -9.61877,-5.98014 -14.81841,-4.76727 l -51.17838,12.81515 c -3.27206,-2.74559 -6.54413,-5.49118 -9.88201,-8.98898 l 1.27936,-54.68538 c 0.29154,-5.33126 -2.42575,-10.39928 -6.51583,-13.83126 -4.84229,-3.36618 -10.17355,-3.65772 -15.24157,-0.94043 l -47.31402,22.3306 c -3.95847,-1.92758 -7.98274,-4.60735 -11.94121,-6.53493 l -8.49933,-53.829853 c -0.52648,-6.017656 -4.68237,-10.201849 -9.39304,-12.063612 -4.77648,-2.61397 -10.79414,-2.087492 -15.04414,1.316194 l -42.69746,31.780241 c -3.89266,-1.17537 -7.78531,-2.35073 -12.43017,-3.46029 L 710.54131,61.651928 c -1.96508,-5.13383 -6.12097,-9.318023 -11.51804,-10.36177 -5.39707,-1.043746 -10.5309,0.921336 -14.71509,5.077229 l -35.89009,40.280248 c -3.82685,-0.423159 -8.47171,-1.532714 -13.05076,-1.890063 L 607.83709,48.656424 c -2.71729,-5.068019 -7.49377,-7.681989 -12.82503,-7.973528 -5.33125,-0.291539 -10.33346,3.177956 -12.94743,7.954437 z M 162.46924,528.75654 c 0,0 0,0 0,0 0,0 0,0 0,0 z"
     style="fill:url(#_Linear1);fill-rule:nonzero;stroke-width:755.08"
     id="path209" /><path
     d="m 450.328,650.959 c -1.664,-1.42 -2.536,-2.262 -2.536,-2.262 L 590.334,637.02 C 474.061,483.629 380.91,605.822 370.995,619.484 v 31.475 z"
     style="fill-rule:nonzero"
     id="path213" /><path
     d="m 747.12,649.307 c 1.663,-1.42 2.536,-2.264 2.536,-2.264 L 612.672,637.02 C 729,477.333 816.541,604.168 826.455,617.83 v 31.477 z"
     style="fill-rule:nonzero"
     id="path217" /><path
     style="fill:url(#linearGradient441);fill-rule:nonzero;stroke-width:267.211"
     d="m 845.53848,677.65363 c 0,0 148.56931,-57.45037 160.59382,-180.63464 h -40.08167 c 0,0 -15.49823,61.99295 -112.49582,127.19244 l -26.98831,6.41307 c 0,0 -87.91243,-160.3266 -212.43275,20.30805 0,0 38.7456,-22.44573 142.69068,5.077"
     id="path394" /><path
     d="m 677.392,417.547 c 0,0 43.486,-47.615 86.974,0 0,0 34.17,63.492 0,95.234 0,0 -55.912,44.444 -86.974,0 0,0 -37.275,-34.921 0,-95.234"
     style="fill-rule:nonzero"
     id="path225" /><path
     d="m 727.738,435.211 c 0,18.541 -10.93,33.572 -24.408,33.572 -13.477,0 -24.406,-15.031 -24.406,-33.572 0,-18.541 10.929,-33.574 24.406,-33.574 13.478,0 24.408,15.033 24.408,33.574"
     style="fill:#ffffff;fill-rule:nonzero"
     id="path229" /><path
     d="m 483.3,404.545 c 0,0 74.596,-33.028 94.956,40.691 0,0 21.327,85.926 -61.259,90.776 0,0 -105.31,-20.283 -33.697,-131.467"
     style="fill-rule:nonzero"
     id="path233" /><path
     d="m 520.766,436.428 c 0,19.119 -11.27,34.627 -25.173,34.627 -13.898,0 -25.171,-15.508 -25.171,-34.627 0,-19.124 11.273,-34.627 25.171,-34.627 13.903,0 25.173,15.503 25.173,34.627"
     style="fill:#ffffff;fill-rule:nonzero"
     id="path237" /><path
     style="fill:url(#linearGradient445);fill-rule:nonzero;stroke-width:239.021"
     d="M 441.36044,662.57009 C 533.1445,650.85805 586.20716,649.90196 586.20716,649.90196 463.35036,487.84573 363.67861,634.60463 363.67861,634.60463 338.82043,625.52184 313.24518,590.86379 294.36252,558.83498 l -76.24771,-22.46797 c 87.72072,149.1491 153.21248,151.30028 153.21248,151.30028"
     id="path386" /><path
     style="clip-rule:evenodd;fill:#f47521;fill-rule:evenodd;stroke-width:10.1395;stroke-linejoin:round;stroke-miterlimit:1.41421"
     d="m 485.44138,650.9442 c -3.07229,-38.76345 9.76437,-77.05037 35.57964,-106.10013 25.83554,-28.98892 62.37842,-46.26668 101.19258,-47.73693 38.81416,-1.42968 76.52306,12.98875 104.44736,39.98018 27.9953,26.98133 43.6811,64.16299 43.5696,103.02784 v -9.03433 c 0,-89.62337 -72.6092,-162.23258 -162.23259,-162.23258 -89.62337,0 -162.23259,72.60921 -162.23259,162.23258 0,89.62338 72.60922,162.23263 162.23259,162.23263 h 10.82904 C 543.9465,788.03076 485.84698,725.93623 485.43122,650.94421 Z m 219.89618,7.17877 c -58.29223,0.21281 -72.83234,-80.95406 -18.00785,-100.97963 -16.05089,-8.55776 -34.05871,-12.93806 -52.27946,-12.56289 -45.94226,0 -87.35211,27.66066 -104.93407,70.07434 -17.57183,42.46439 -7.86829,91.30655 24.61881,123.78348 32.47693,32.48707 81.31907,42.19063 123.78348,24.61881 42.41369,-17.59211 70.07429,-59.00197 70.07429,-104.93411 0.3245,-7.22949 -0.2533,-14.51981 -1.7845,-21.65802 -8.8823,14.20547 -24.7101,22.49962 -41.4606,21.65802 z"
     id="path3609" /><path
     style="clip-rule:evenodd;fill:url(#linearGradient447);fill-rule:nonzero;stroke-width:239.021;stroke-linejoin:round;stroke-miterlimit:1.41421"
     d="m 371.32729,687.66729 c 136.24198,174.72435 200.77764,34.41902 200.77764,34.41902 -76.48672,-8.60475 -130.74449,-59.51622 -130.74449,-59.51622 l -45.83154,-4.34502 z"
     id="path241"
     sodipodi:nodetypes="ccccc" /><path
     style="clip-rule:evenodd;fill:url(#linearGradient443);fill-rule:nonzero;stroke-width:267.211;stroke-linejoin:round;stroke-miterlimit:1.41421"
     d="m 756.82443,656.00955 c 0,0 -47.83077,73.21581 -144.02673,70.81092 0,0 92.1878,110.89256 232.74078,-49.16684 l -35.00294,-40.33754 z"
     id="path221"
     sodipodi:nodetypes="ccccc" /></g></svg>
