<?xml version="1.0" encoding="UTF-8" standalone="no"?>
<!-- Created with Inkscape (http://www.inkscape.org/) -->

<svg
   width="1000"
   height="1000"
   viewBox="0 0 264.58333 264.58332"
   version="1.1"
   id="svg5"
   xml:space="preserve"
   inkscape:export-filename="uwu.png"
   inkscape:export-xdpi="300"
   inkscape:export-ydpi="300"
   inkscape:version="1.2 (dc2aedaf03, 2022-05-15)"
   sodipodi:docname="crunchy-labs.svg"
   xmlns:inkscape="http://www.inkscape.org/namespaces/inkscape"
   xmlns:sodipodi="http://sodipodi.sourceforge.net/DTD/sodipodi-0.dtd"
   xmlns="http://www.w3.org/2000/svg"
   xmlns:svg="http://www.w3.org/2000/svg"><sodipodi:namedview
     id="namedview7"
     pagecolor="#505050"
     bordercolor="#eeeeee"
     borderopacity="1"
     inkscape:showpageshadow="0"
     inkscape:pageopacity="0"
     inkscape:pagecheckerboard="0"
     inkscape:deskcolor="#505050"
     inkscape:document-units="mm"
     showgrid="false"
     inkscape:zoom="0.70710678"
     inkscape:cx="428.50671"
     inkscape:cy="449.71991"
     inkscape:window-width="1920"
     inkscape:window-height="1030"
     inkscape:window-x="1920"
     inkscape:window-y="27"
     inkscape:window-maximized="1"
     inkscape:current-layer="layer1" /><defs
     id="defs2" /><g
     inkscape:label="Layer 1"
     inkscape:groupmode="layer"
     id="layer1"><path
       style="fill:#f47521;stroke-width:5.9481"
       d="M 60.396782,143.94402 C 58.59448,121.20437 66.124791,98.744302 81.268673,81.702971 96.424428,64.697314 117.86139,54.561726 140.63073,53.69924 c 22.76934,-0.838767 44.89034,7.619531 61.27142,23.453411 16.42271,15.827945 25.62441,37.639669 25.55899,60.438789 v -5.29977 c 0,-52.575363 -42.59436,-95.169817 -95.16965,-95.169817 -52.575284,0 -95.169644,42.594454 -95.169644,95.169817 0,52.57537 42.59436,95.16981 95.169644,95.16981 h 6.35257 C 94.717336,224.3625 60.634697,187.93626 60.390825,143.94402 Z m 128.996488,4.21127 c -34.19562,0.12589 -42.7252,-47.48976 -10.56383,-59.23727 -9.41583,-5.020201 -19.97966,-7.589777 -30.66841,-7.369721 -26.95085,0 -51.242914,16.226467 -61.556915,41.107421 -10.308059,24.9107 -4.615732,53.56276 14.441985,72.61456 19.0518,19.05778 47.70382,24.7501 72.61446,14.44203 24.8809,-10.31999 41.10733,-34.61208 41.10733,-61.55702 0.1911,-4.24101 -0.14828,-8.51773 -1.04694,-12.70518 -5.21054,8.33331 -14.49551,13.19885 -24.32178,12.70518 z"
       id="path11" /><path
       style="fill:#f47521;fill-opacity:1;stroke:#000000;stroke-width:0;stroke-linecap:butt;stroke-linejoin:miter;stroke-dasharray:none;stroke-opacity:1"
       d="m 40.14618,84.110216 c 0,0 -12.606069,-61.114123 4.724355,-70.971613 C 54.5195,7.6502986 103.89976,26.978081 98.978453,34.153996 96.770617,37.37332 64.523777,37.598957 40.14618,84.110216 Z"
       id="path295"
       sodipodi:nodetypes="cssc" /><path
       style="fill:#f47521;fill-opacity:1;stroke:#000000;stroke-width:0;stroke-linecap:butt;stroke-linejoin:miter;stroke-dasharray:none;stroke-opacity:1"
       d="m 224.4372,84.110227 c 0,0 12.60608,-61.114132 -4.72435,-70.971624 -9.64897,-5.4883036 -59.02921,13.839479 -54.1079,21.015394 2.20782,3.219324 34.45465,3.444962 58.83225,49.95623 z"
       id="path295-6"
       sodipodi:nodetypes="cssc" /><path
       style="fill:#f47521;fill-opacity:1;stroke:#f47521;stroke-width:0;stroke-linecap:butt;stroke-linejoin:miter;stroke-dasharray:none;stroke-opacity:1"
       d="m 187.68327,213.33689 c 22.00217,5.54724 24.58575,-1.77348 30.96046,-26.84656 6.44199,-25.33765 29.71332,-27.50211 41.08618,-17.8302 3.97577,3.38115 3.49347,10.65412 -0.79538,13.58628 -5.67334,3.87872 -20.1399,3.26366 -20.5021,-2.17841 -0.18862,-2.83249 16.43396,1.84893 17.54347,-4.04919 0.6648,-3.53395 -3.84599,-5.71965 -8.91136,-6.07981 -34.63568,-1.86595 -3.51114,55.31603 -52.50913,54.74935 -11.93436,-0.13802 -20.16497,-5.57119 -20.16497,-5.57119 6.15795,-2.26138 8.2492,-3.00754 13.29283,-5.78027 z"
       id="path344-3"
       sodipodi:nodetypes="cssssscscc" /><g
       transform="matrix(3.8812106,0,0,3.8812106,28.472013,-49.270588)"
       id="layer1-6"
       inkscape:label="Layer 1"
       style="fill:#ffffff"><path
         id="path857"
         d="m 37.038899,49.77819 c -1.69739,-0.282353 -3.576991,-2.225316 -4.418135,-4.567072 -0.478501,-1.332154 -0.660055,-3.34607 -0.375458,-4.16485 0.252275,-0.725795 0.899983,-0.962921 1.183449,-0.433261 0.04369,0.08163 0.105735,0.661076 0.137889,1.287663 0.109389,2.131717 0.58295,3.544999 1.609416,4.803097 1.579858,1.936372 3.199074,1.970864 4.627364,0.09857 1.149112,-1.506328 1.560153,-3.078788 1.379725,-5.278201 -0.04636,-0.565103 -0.0612,-1.118956 -0.03298,-1.230786 0.02821,-0.111831 0.146518,-0.298546 0.262896,-0.414924 0.180334,-0.180334 0.248938,-0.205537 0.46434,-0.170581 0.13901,0.02255 0.316997,0.09801 0.39553,0.167663 0.519511,0.460803 0.759886,2.350777 0.509916,4.009272 -0.145503,0.965381 -0.284776,1.447417 -0.636925,2.204451 -0.955058,2.053136 -2.388178,3.395421 -3.916302,3.668073 -0.599697,0.107 -0.666034,0.108164 -1.190717,0.02088 z"
         style="fill:#ffffff;stroke-width:0.0706456" /><path
         id="path855"
         d="m 15.443911,50.069049 c -0.888065,-0.133566 -1.568554,-0.448307 -2.376691,-1.099269 -1.163601,-0.93729 -2.140643,-2.813357 -2.386771,-4.582955 -0.152824,-1.098764 -0.02319,-2.823468 0.29106,-3.872337 0.147192,-0.49128 0.611397,-0.699762 0.904799,-0.406359 0.166608,0.166608 0.181405,0.484353 0.05978,1.283513 -0.173331,1.138831 0.158484,3.115357 0.705718,4.203751 0.950351,1.890156 2.374235,2.899979 3.717546,2.636502 0.709443,-0.139151 1.145648,-0.394525 1.804421,-1.05639 0.479651,-0.481902 0.659167,-0.724142 0.892096,-1.203793 0.552089,-1.136872 0.809978,-2.073112 1.008839,-3.662485 0.111232,-0.889011 0.475247,-1.335562 1.006001,-1.234102 0.236475,0.04521 0.582079,0.40836 0.686514,0.721378 0.366452,1.098355 -0.429093,4.144174 -1.504626,5.760599 -0.682179,1.025254 -1.707538,1.871223 -2.738237,2.259178 -0.395251,0.148772 -1.390672,0.340488 -1.634019,0.314708 -0.04576,-0.0048 -0.242148,-0.03272 -0.436423,-0.06194 z"
         style="fill:#ffffff;stroke-width:0.0706456" /><path
         id="path853"
         d="m 24.408573,53.783828 c -0.93867,-0.293792 -1.747778,-1.384093 -2.007752,-2.705519 -0.04794,-0.243639 -0.0732,-0.747643 -0.05731,-1.143161 0.02519,-0.627283 0.04754,-0.727763 0.197311,-0.887184 0.27683,-0.294674 0.635868,-0.209871 0.772647,0.182495 0.04295,0.123185 0.07807,0.403291 0.07807,0.622459 0,0.798825 0.400845,1.818057 0.918649,2.335862 0.518429,0.518429 0.832213,0.437168 1.255642,-0.325175 0.127345,-0.229273 0.341465,-0.52018 0.475821,-0.646458 0.211358,-0.198653 0.294101,-0.229599 0.613908,-0.229599 h 0.369626 l 0.542839,0.565165 c 0.335015,0.348794 0.598696,0.565165 0.68874,0.565165 0.215612,0 0.632608,-0.455352 0.862869,-0.942239 0.204369,-0.432138 0.284112,-0.74745 0.41098,-1.625052 0.08422,-0.582572 0.204761,-0.784716 0.532426,-0.892855 0.314805,-0.103895 0.568686,0.0059 0.796634,0.344525 0.206825,0.307244 0.2147,0.876578 0.02317,1.675413 -0.236549,0.986627 -0.597796,1.66421 -1.213613,2.276354 -0.471439,0.468628 -0.784799,0.607892 -1.367826,0.607892 -0.569324,0 -0.909243,-0.144711 -1.30314,-0.554778 -0.133902,-0.139398 -0.276959,-0.252243 -0.317905,-0.250769 -0.04094,0.0015 -0.158691,0.124592 -0.261654,0.273594 -0.485382,0.702422 -1.253779,0.990595 -2.010134,0.753865 z"
         style="fill:#ffffff;stroke-width:0.0706456" /></g></g></svg>
