<svg xmlns="http://www.w3.org/2000/svg" width="100mm" height="100mm" viewBox="0 0 354.331 354.331"><path d="m1344.725-401.98-60.67 144.765c1.199.263 2.429.47 3.62.746a303.854 303.854 0 0 1 14.477 3.73 292.93 292.93 0 0 1 14.104 4.394 284.547 284.547 0 0 1 13.73 5.054 278.98 278.98 0 0 1 13.362 5.725 276.198 276.198 0 0 1 25.64 13.455c3.084 1.83 6.101 3.788 9.121 5.743v-9.154h39.726l-73.11-174.459z" style="font-size:25.4562px;-inkscape-font-specification:&quot;sans-serif, Normal&quot;;stroke-width:124.091;fill:#dc0000;fill-opacity:1" transform="matrix(.51048 0 0 .51048 -458.204 205.202)"/><path d="m1472.28-322.724-56.034 133.708c.072.066.15.127.222.193A282.544 282.544 0 0 1 1437-167.947a275.129 275.129 0 0 1 26.152 34.69 272.786 272.786 0 0 1 7.425 12.382 272.306 272.306 0 0 1 22.924 53.094 276.143 276.143 0 0 1 7.217 28.409 281.79 281.79 0 0 1 2.5 14.602c.607 4.204 1.152 9.544 1.6 15.234.37 4.695.625 9.573.847 14.305V-148.27h39.729l-73.113-174.455z" style="font-size:25.4562px;-inkscape-font-specification:&quot;sans-serif, Normal&quot;;stroke-width:124.091;fill:#009600;fill-opacity:1" transform="matrix(.51048 0 0 .51048 -458.204 205.202)"/><path d="M1257.488 256.912c-89.614-6.527-163.863-73.345-179.358-161.407-2.82-16.03-3.364-45.993-1.102-60.74 13.434-87.571 80.796-154.008 168.671-166.357 17.811-2.503 49.55-1.626 66.609 1.841 14.838 3.016 31.287 8.369 44.209 14.387l10.02 4.667-9.43 4.454c-34.035 16.073-55.041 53.668-50.11 89.682 4.938 36.065 29.878 64.372 65.68 74.548 12.89 3.664 32.6 3.663 45.496-.001 16.673-4.739 29.749-12.49 41.65-24.686 4.017-4.117 7.563-7.064 7.879-6.547.316.517 1.235 6.194 2.04 12.616 1.99 15.843.822 45.986-2.364 61.035-10.145 47.93-35.707 88.162-74.904 117.887-37.1 28.134-86.178 42.177-134.986 38.622z" style="fill:#f78b24;fill-opacity:1;stroke-width:1.17892" transform="matrix(.51048 0 0 .51048 -458.204 205.202)"/><path d="M1197.953 291.522c-9.442-.88-34.283-5.184-43.498-7.537-79.664-20.34-147.129-74.89-182.83-147.834-19.573-39.988-27.73-75.749-27.698-121.427.032-45.734 8.315-82.212 27.57-121.428 14.422-29.373 31.01-52.382 54.56-75.68 44.052-43.581 99.85-70.56 163.054-78.836 20.664-2.706 64.405-1.825 83.703 1.685 40.135 7.3 76.169 21.638 108.46 43.156 67.088 44.707 110.602 113.08 121.946 191.61 2.429 16.812 3.835 51.801 2.199 54.724-.892 1.594-1.356-.076-1.94-6.987-2.897-34.262-17.717-75.69-38.165-106.683-62.151-94.201-178.108-134.167-285.469-98.39C1096.98-154.49 1034.7-84.429 1017.606.405c-8.452 41.947-5.916 83.064 7.628 123.656 23.885 71.586 81.05 128.776 153.546 153.612 17.097 5.857 39.053 10.738 53.532 11.9 17.337 1.39 12.968 2.714-8.423 2.55-11.67-.09-23.342-.36-25.936-.601z" style="fill:#f78b24;fill-opacity:1;stroke-width:1.17892" transform="matrix(.51048 0 0 .51048 -458.204 205.202)"/></svg>